<svg id="svg" version="1.1" width="400" height="400" viewBox="0 0 400 400" xmlns="http://www.w3.org/2000/svg" xmlns:xlink="http://www.w3.org/1999/xlink" ><g id="svgg"><path id="path0" d="M186.352 109.751 C 171.132 115.125,157.917 127.916,148.062 146.816 C 143.485 155.595,141.232 161.878,142.403 162.602 C 144.416 163.846,144.096 167.276,141.802 169.025 C 139.971 170.422,139.919 170.722,140.857 174.489 C 143.315 184.373,148.590 189.000,157.400 189.000 C 166.187 189.000,171.883 184.355,175.222 174.464 L 176.484 170.728 175.642 168.529 C 174.530 165.622,174.577 164.689,175.964 162.249 C 176.799 160.779,177.202 159.409,177.392 157.400 C 179.201 138.210,184.057 122.790,191.483 112.656 C 194.418 108.650,192.519 107.575,186.352 109.751 M213.200 109.754 C 213.200 110.358,214.816 111.585,217.212 112.801 C 230.649 119.617,243.856 135.423,251.996 154.431 C 254.843 161.078,255.455 162.000,257.022 162.000 C 259.534 162.000,260.727 165.447,259.200 168.296 C 258.127 170.297,258.121 170.261,260.363 174.707 C 266.863 187.600,274.716 191.929,283.621 187.527 C 295.425 181.693,295.996 170.114,285.367 152.120 C 277.576 138.931,264.692 127.042,250.270 119.734 C 243.300 116.202,231.787 112.400,222.749 110.646 C 216.253 109.385,213.200 109.100,213.200 109.754 M218.509 157.200 C 218.509 158.190,218.587 158.595,218.682 158.100 C 218.778 157.605,218.778 156.795,218.682 156.300 C 218.587 155.805,218.509 156.210,218.509 157.200 M171.500 163.062 C 172.119 163.738,172.400 164.543,172.400 165.640 C 172.400 170.111,166.057 170.556,164.955 166.162 C 164.107 162.783,169.085 160.425,171.500 163.062 M268.900 163.245 C 272.258 166.810,266.640 171.502,263.169 168.031 C 261.206 166.068,261.851 163.339,264.551 162.184 C 266.194 161.482,267.551 161.813,268.900 163.245 M276.986 162.168 C 280.779 163.753,279.731 169.200,275.634 169.200 C 270.997 169.200,270.117 162.980,274.600 161.888 C 275.040 161.781,275.451 161.672,275.513 161.646 C 275.575 161.621,276.238 161.856,276.986 162.168 M151.660 162.432 C 153.057 163.180,153.716 165.348,153.039 166.968 C 151.526 170.590,146.384 169.877,145.748 165.956 C 145.275 163.040,148.833 160.919,151.660 162.432 M162.164 163.231 C 164.305 165.774,162.687 169.200,159.345 169.200 C 156.441 169.200,154.723 166.697,155.826 164.074 C 156.862 161.609,160.403 161.138,162.164 163.231 M287.536 162.640 C 290.403 164.649,288.841 169.200,285.285 169.200 C 281.747 169.200,279.985 165.554,282.369 163.169 C 283.726 161.813,286.019 161.578,287.536 162.640 M73.800 213.334 C 73.014 213.925,73.000 214.403,73.000 241.200 C 73.000 272.931,72.405 269.600,78.076 269.600 C 83.394 269.600,83.200 269.986,83.200 259.382 C 83.200 250.765,83.200 250.763,84.182 249.782 C 85.345 248.618,86.017 248.555,87.152 249.500 C 87.914 250.134,92.000 264.905,92.000 267.025 C 92.000 269.206,99.121 270.741,102.026 269.186 C 103.193 268.561,102.155 263.445,98.427 251.451 C 96.811 246.250,96.844 245.432,98.790 242.565 C 100.945 239.391,101.306 237.310,101.138 229.050 C 100.944 219.556,99.451 216.702,93.371 214.203 C 89.937 212.792,75.382 212.146,73.800 213.334 M192.710 213.664 C 191.532 214.746,190.167 220.808,186.634 240.641 C 186.081 243.744,184.722 250.821,183.614 256.367 C 180.848 270.216,180.722 269.600,186.329 269.600 C 190.537 269.600,191.004 269.207,191.795 265.011 C 192.603 260.719,193.432 259.867,196.800 259.867 C 200.168 259.867,200.997 260.719,201.805 265.011 C 202.613 269.301,203.002 269.600,207.768 269.600 C 213.838 269.600,213.752 269.984,210.792 256.200 C 209.578 250.552,207.281 238.898,205.784 230.800 C 202.154 211.170,203.036 213.068,197.454 212.864 C 194.006 212.737,193.654 212.797,192.710 213.664 M290.837 213.563 L 289.984 214.416 290.092 241.441 C 290.218 272.872,289.620 269.600,295.232 269.600 C 300.704 269.600,300.570 269.834,300.446 260.501 C 300.334 252.063,300.674 249.822,302.170 249.141 C 304.446 248.104,305.441 249.750,307.160 257.400 C 310.067 270.339,309.564 269.584,315.300 269.594 C 321.472 269.605,321.479 270.703,315.163 249.658 C 314.100 246.117,314.190 245.195,315.829 242.812 C 320.672 235.773,319.662 220.425,314.075 216.134 C 310.008 213.010,293.244 211.156,290.837 213.563 M88.595 223.667 C 90.599 225.244,91.505 230.775,90.545 235.574 C 89.931 238.645,85.981 240.368,84.162 238.358 C 82.865 236.925,83.017 224.640,84.344 223.565 C 85.589 222.557,87.233 222.596,88.595 223.667 M305.953 223.452 C 307.498 224.534,308.000 226.386,308.000 231.000 C 308.000 237.012,306.855 239.200,303.711 239.200 C 300.908 239.200,300.184 237.004,300.476 229.379 C 300.710 223.283,302.675 221.156,305.953 223.452 M197.557 238.148 C 199.229 240.163,200.105 249.601,198.711 250.577 C 194.869 253.268,192.874 249.462,194.611 242.756 C 195.840 238.011,196.538 236.920,197.557 238.148 " stroke="none" fill="#003ca5" fill-rule="evenodd"></path><path id="path1" d="M0.000 200.000 L 0.000 400.000 200.000 400.000 L 400.000 400.000 400.000 200.000 L 400.000 0.000 200.000 0.000 L 0.000 0.000 0.000 200.000 M200.913 93.351 C 204.707 94.974,206.241 99.468,204.391 103.544 C 202.720 107.227,202.974 107.380,211.800 107.987 C 245.166 110.282,274.756 128.559,288.663 155.462 C 297.460 172.481,295.844 183.225,283.600 189.134 C 275.606 192.992,263.766 186.906,260.001 177.002 C 258.407 172.811,257.091 172.814,255.680 177.013 C 249.774 194.584,227.737 194.918,220.727 177.543 C 219.860 175.394,218.936 174.000,218.378 174.000 C 218.214 174.000,217.263 175.677,216.266 177.727 C 207.957 194.808,186.631 194.332,179.197 176.900 C 177.909 173.879,177.126 174.047,175.448 177.700 C 167.299 195.448,146.267 195.039,140.181 177.014 C 138.578 172.264,138.036 172.143,136.197 176.124 C 128.516 192.749,110.568 194.991,103.386 180.222 C 97.290 167.687,112.922 140.102,134.600 125.141 C 149.076 115.150,172.726 107.698,190.256 107.605 C 190.726 107.602,191.503 107.283,191.981 106.895 L 192.852 106.191 191.830 103.995 C 188.702 97.275,194.421 90.573,200.913 93.351 M215.854 163.229 C 214.006 164.683,214.536 167.462,216.843 168.418 C 218.041 168.914,218.172 168.881,219.058 167.850 C 221.556 164.947,218.773 160.933,215.854 163.229 M109.289 163.423 C 107.483 164.688,108.623 168.400,110.818 168.400 C 111.268 168.400,112.078 167.958,112.618 167.418 C 114.950 165.086,111.989 161.532,109.289 163.423 M119.200 163.316 C 117.392 164.227,117.640 167.188,119.593 167.997 C 122.311 169.123,124.222 165.450,121.933 163.500 C 120.961 162.672,120.535 162.643,119.200 163.316 M129.000 163.278 C 127.403 164.184,127.135 165.738,128.324 167.206 C 129.736 168.949,132.807 167.871,132.794 165.638 C 132.781 163.495,130.796 162.260,129.000 163.278 M138.494 163.218 C 136.636 163.957,136.599 167.436,138.438 168.421 C 140.093 169.306,142.799 166.686,142.195 164.783 C 141.748 163.375,139.980 162.627,138.494 163.218 M177.001 163.599 C 175.519 165.237,176.613 168.400,178.662 168.400 C 180.962 168.400,182.177 164.730,180.311 163.423 C 179.101 162.575,177.868 162.641,177.001 163.599 M186.400 163.600 C 184.754 165.246,186.116 168.400,188.472 168.400 C 189.539 168.400,191.200 166.627,191.200 165.488 C 191.200 163.267,187.994 162.006,186.400 163.600 M196.029 163.854 C 194.940 165.238,194.982 166.219,196.182 167.418 C 198.667 169.903,202.151 166.626,199.971 163.854 C 199.421 163.155,198.757 162.800,198.000 162.800 C 197.243 162.800,196.579 163.155,196.029 163.854 M205.782 163.782 C 203.297 166.267,206.574 169.751,209.346 167.571 C 210.636 166.557,210.751 164.751,209.600 163.600 C 208.519 162.519,206.971 162.593,205.782 163.782 M225.382 163.782 C 223.742 165.422,224.903 168.400,227.182 168.400 C 229.377 168.400,230.517 164.688,228.711 163.423 C 227.458 162.545,226.517 162.647,225.382 163.782 M235.691 163.216 C 233.708 164.012,233.903 167.132,235.990 167.996 C 238.703 169.119,240.721 165.884,238.618 163.782 C 237.567 162.730,237.117 162.643,235.691 163.216 M244.582 163.782 C 242.160 166.203,245.419 169.716,248.117 167.594 C 249.769 166.295,249.583 164.237,247.726 163.260 C 246.418 162.571,245.668 162.696,244.582 163.782 M147.862 163.931 C 146.854 165.045,147.024 166.666,148.231 167.457 C 150.446 168.908,152.908 166.446,151.457 164.231 C 150.644 162.990,148.849 162.841,147.862 163.931 M157.600 164.000 C 156.587 165.013,156.593 165.629,157.629 166.946 C 159.010 168.702,161.600 167.850,161.600 165.639 C 161.600 163.452,159.152 162.448,157.600 164.000 M167.023 164.089 C 166.149 165.337,166.244 166.114,167.406 167.205 C 169.425 169.103,172.191 166.572,170.657 164.231 C 169.781 162.894,167.911 162.821,167.023 164.089 M254.080 163.680 C 252.945 164.815,253.605 167.375,255.254 168.228 C 257.430 169.353,259.566 165.623,257.771 163.829 C 257.029 163.086,254.765 162.995,254.080 163.680 M264.262 163.931 C 262.950 165.382,264.068 168.000,266.000 168.000 C 267.086 168.000,268.400 166.610,268.400 165.462 C 268.400 163.474,265.610 162.442,264.262 163.931 M273.862 163.931 C 272.972 164.915,273.027 166.227,274.000 167.200 C 275.094 168.294,276.182 168.203,277.178 166.937 C 279.003 164.617,275.838 161.749,273.862 163.931 M283.600 164.000 C 282.556 165.044,282.591 165.712,283.758 167.070 C 285.634 169.250,288.647 166.657,287.057 164.231 C 286.234 162.975,284.726 162.874,283.600 164.000 M164.445 211.202 C 172.660 212.735,176.400 217.822,176.400 227.460 C 176.400 233.687,176.116 234.000,170.462 234.000 C 164.951 234.000,164.672 233.753,164.386 228.632 C 164.079 223.140,161.425 221.050,159.774 225.001 C 158.995 226.865,158.934 255.661,159.706 257.161 C 161.731 261.099,164.400 258.635,164.400 252.825 C 164.400 247.631,164.652 247.400,170.324 247.400 C 176.408 247.400,176.400 247.392,176.400 253.778 C 176.400 256.861,176.175 259.496,175.783 261.000 C 172.502 273.599,153.532 274.821,147.851 262.800 C 146.491 259.923,146.526 222.827,147.892 219.868 C 149.742 215.859,152.788 213.184,157.000 211.868 C 160.512 210.772,161.612 210.673,164.445 211.202 M344.908 211.388 C 350.292 212.529,353.909 215.210,355.960 219.582 L 357.000 221.800 357.128 239.400 C 357.217 251.644,357.114 257.727,356.790 259.390 C 353.822 274.624,330.495 275.147,326.944 260.059 C 326.286 257.264,326.171 226.516,326.806 223.169 C 327.961 217.080,333.084 212.307,339.600 211.250 C 340.810 211.054,341.890 210.876,342.000 210.854 C 342.110 210.832,343.419 211.072,344.908 211.388 M131.494 212.574 C 134.508 213.939,137.216 216.686,138.728 219.913 L 139.800 222.200 139.800 241.000 L 139.800 259.800 138.682 262.077 C 131.866 275.956,111.741 273.441,109.192 258.392 C 108.283 253.029,108.854 223.795,109.919 221.142 C 113.339 212.624,123.070 208.760,131.494 212.574 M63.695 212.020 C 65.737 212.587,66.000 213.290,66.000 218.192 C 66.000 223.520,65.414 224.400,61.862 224.400 C 60.319 224.400,59.415 224.621,58.744 225.164 L 57.800 225.929 57.600 247.597 C 57.374 272.079,57.674 270.100,54.108 270.635 C 50.553 271.168,46.747 270.619,45.720 269.425 L 44.800 268.355 44.800 247.360 L 44.800 226.364 43.818 225.382 C 43.042 224.606,42.424 224.400,40.872 224.400 C 37.344 224.400,36.800 223.599,36.800 218.404 C 36.800 213.314,36.921 212.885,38.560 212.171 C 40.108 211.497,61.353 211.369,63.695 212.020 M90.392 211.998 C 98.238 213.486,101.781 217.744,102.473 226.514 C 103.125 234.791,102.277 240.095,99.772 243.400 C 98.226 245.440,98.246 246.239,99.986 251.906 C 100.880 254.817,101.890 258.415,102.231 259.900 C 102.572 261.385,103.218 263.819,103.667 265.308 C 105.119 270.129,104.396 270.800,97.748 270.800 C 91.781 270.800,91.589 270.631,90.007 264.000 C 87.660 254.157,86.684 251.200,85.784 251.200 C 84.941 251.200,84.825 252.238,84.708 260.890 C 84.572 270.819,84.745 270.532,78.765 270.738 C 74.285 270.893,72.749 270.484,72.052 268.954 C 71.539 267.828,71.440 214.750,71.949 213.457 C 72.654 211.664,83.927 210.772,90.392 211.998 M201.753 211.982 C 203.541 212.662,205.141 217.934,206.615 228.000 C 206.905 229.984,210.777 249.697,211.996 255.400 C 215.357 271.121,215.403 270.968,207.427 270.735 C 201.739 270.568,201.462 270.368,200.589 265.809 C 199.838 261.881,199.278 261.200,196.800 261.200 C 194.322 261.200,193.762 261.881,193.011 265.809 C 192.157 270.270,191.783 270.565,186.765 270.738 C 179.125 271.001,179.227 271.342,182.340 255.885 C 183.679 249.238,185.050 242.073,185.388 239.962 C 185.725 237.852,186.639 232.992,187.419 229.162 C 188.199 225.333,189.190 220.430,189.622 218.267 C 190.886 211.934,191.250 211.600,196.863 211.600 C 199.000 211.600,201.200 211.772,201.753 211.982 M281.035 212.922 C 281.908 213.938,282.000 214.405,282.000 217.842 C 282.000 223.908,281.529 224.385,275.529 224.395 C 271.066 224.402,270.400 225.029,270.400 229.228 C 270.400 233.807,271.365 234.792,275.856 234.798 C 278.895 234.802,279.400 235.622,279.400 240.550 C 279.400 245.846,279.223 246.079,274.928 246.430 C 270.825 246.766,270.400 247.272,270.400 251.818 C 270.400 257.410,271.052 258.000,277.231 258.000 C 282.036 258.000,282.400 258.439,282.400 264.232 C 282.400 268.014,282.320 268.448,281.435 269.478 L 280.469 270.600 270.000 270.600 L 259.531 270.600 258.565 269.478 L 257.600 268.355 257.600 241.232 C 257.600 214.624,257.615 214.088,258.408 213.081 C 259.500 211.693,259.657 211.675,270.535 211.742 L 280.071 211.800 281.035 212.922 M308.080 212.046 C 317.051 213.933,320.252 219.337,319.934 232.058 C 319.770 238.598,319.486 239.656,316.739 243.939 C 315.626 245.676,315.684 246.633,317.222 251.859 C 322.956 271.343,323.009 270.522,316.003 270.736 C 308.494 270.965,308.890 271.499,305.610 256.712 C 303.624 247.755,302.000 249.350,302.000 260.258 C 302.000 270.684,301.926 270.804,295.481 270.795 C 288.135 270.784,288.800 273.729,288.800 241.200 C 288.800 212.619,288.816 212.367,290.695 211.877 C 292.189 211.487,306.065 211.622,308.080 212.046 M242.312 213.569 C 249.661 217.002,249.800 217.510,249.800 241.000 C 249.800 263.616,249.668 264.222,243.948 267.833 C 239.487 270.649,223.328 271.765,220.982 269.418 L 220.000 268.436 220.000 241.392 C 220.000 223.021,220.137 214.092,220.426 213.551 C 221.163 212.174,222.382 212.007,231.000 212.109 L 239.400 212.209 242.312 213.569 M123.094 223.700 C 122.732 223.975,122.248 224.707,122.018 225.326 C 121.493 226.740,121.446 255.143,121.967 256.512 C 122.962 259.130,125.495 259.647,126.804 257.500 C 127.741 255.964,128.050 227.809,127.158 225.251 C 126.492 223.340,124.546 222.598,123.094 223.700 M340.290 223.901 C 339.941 224.286,339.463 225.108,339.228 225.727 C 338.632 227.295,338.644 255.034,339.242 256.749 C 339.985 258.879,342.423 259.521,343.838 257.958 C 345.058 256.611,345.215 226.455,344.012 224.500 C 343.091 223.003,341.355 222.724,340.290 223.901 M232.623 224.889 C 231.789 226.079,231.675 256.233,232.500 257.283 C 233.477 258.526,234.658 258.516,236.073 257.252 L 237.400 256.066 237.521 242.333 C 237.587 234.780,237.530 227.995,237.394 227.255 C 236.884 224.478,233.935 223.016,232.623 224.889 M85.214 225.174 C 84.986 225.599,84.800 228.221,84.800 231.000 C 84.800 236.499,85.103 237.600,86.614 237.600 C 88.910 237.600,89.865 234.883,89.510 229.355 C 89.246 225.241,86.571 222.637,85.214 225.174 M302.414 225.174 C 301.791 226.338,301.878 236.081,302.520 236.958 C 305.415 240.917,308.685 229.748,305.883 225.471 C 305.018 224.150,303.052 223.982,302.414 225.174 M195.955 244.700 C 194.576 248.268,196.361 251.862,197.996 248.808 C 198.582 247.712,197.592 243.600,196.742 243.600 C 196.543 243.600,196.189 244.095,195.955 244.700 " stroke="none" fill="#ffcc00" fill-rule="evenodd"></path><path id="path2" d="M195.001 93.430 C 191.043 95.494,189.800 99.635,191.830 103.995 L 192.852 106.191 191.981 106.895 C 191.503 107.283,190.726 107.602,190.256 107.605 C 172.726 107.698,149.076 115.150,134.600 125.141 C 112.922 140.102,97.290 167.687,103.386 180.222 C 110.568 194.991,128.516 192.749,136.197 176.124 C 138.036 172.143,138.578 172.264,140.181 177.014 C 142.048 182.543,144.217 185.457,148.500 188.190 C 150.434 189.424,149.680 188.639,147.190 186.825 C 140.657 182.068,137.777 172.030,141.707 167.714 C 142.573 166.762,142.674 165.741,142.213 162.600 C 141.851 160.136,143.653 155.272,148.062 146.816 C 159.910 124.093,176.105 110.636,195.015 107.801 C 200.466 106.983,203.752 109.940,208.989 120.375 C 214.828 132.009,220.465 156.999,218.221 161.300 C 217.906 161.905,217.810 162.400,218.008 162.400 C 220.003 162.400,220.588 166.273,218.855 168.006 C 218.116 168.745,217.848 169.288,218.099 169.539 C 218.312 169.752,218.417 170.796,218.333 171.859 C 218.207 173.439,218.335 173.939,219.034 174.596 C 219.505 175.038,220.272 176.365,220.741 177.543 C 225.718 190.078,240.659 194.420,250.054 186.062 C 252.538 183.853,254.374 180.899,255.680 177.013 C 256.854 173.519,257.553 172.945,258.629 174.588 C 259.627 176.111,259.686 175.629,258.791 173.272 C 257.878 170.871,257.822 169.877,258.463 167.482 C 259.113 165.049,258.683 163.853,256.626 162.376 C 254.993 161.203,254.637 160.593,252.027 154.496 C 243.814 135.309,230.899 119.887,217.000 112.667 C 212.094 110.119,211.908 108.800,216.454 108.800 C 221.064 108.800,219.523 108.525,212.002 108.006 C 202.957 107.382,202.714 107.239,204.391 103.544 C 207.316 97.099,201.003 90.300,195.001 93.430 M226.400 110.400 C 226.950 110.576,227.760 110.720,228.200 110.720 C 228.833 110.720,228.792 110.654,228.000 110.400 C 227.450 110.224,226.640 110.080,226.200 110.080 C 225.567 110.080,225.608 110.146,226.400 110.400 M229.800 111.200 C 230.240 111.389,230.870 111.544,231.200 111.544 C 231.578 111.544,231.504 111.417,231.000 111.200 C 230.560 111.011,229.930 110.856,229.600 110.856 C 229.222 110.856,229.296 110.983,229.800 111.200 M232.600 112.000 C 233.040 112.189,233.670 112.344,234.000 112.344 C 234.378 112.344,234.304 112.217,233.800 112.000 C 233.360 111.811,232.730 111.656,232.400 111.656 C 232.022 111.656,232.096 111.783,232.600 112.000 M237.370 113.427 C 238.893 113.959,240.208 114.326,240.292 114.241 C 240.477 114.057,235.621 112.388,235.022 112.430 C 234.790 112.446,235.846 112.895,237.370 113.427 M241.600 115.000 C 242.150 115.314,242.780 115.572,243.000 115.572 C 243.220 115.572,242.950 115.314,242.400 115.000 C 241.850 114.686,241.220 114.428,241.000 114.428 C 240.780 114.428,241.050 114.686,241.600 115.000 M244.600 116.105 C 256.799 120.932,268.486 129.454,278.742 141.000 C 280.770 143.283,280.757 143.254,278.464 140.400 C 270.625 130.640,252.335 117.450,244.400 115.834 C 243.612 115.673,243.654 115.731,244.600 116.105 M281.636 144.820 C 286.214 150.915,290.332 158.667,292.445 165.164 C 293.275 167.714,293.964 169.577,293.977 169.305 C 294.155 165.547,284.011 145.503,281.015 143.691 C 280.787 143.553,281.066 144.061,281.636 144.820 M112.618 163.782 C 114.258 165.422,113.097 168.400,110.818 168.400 C 108.623 168.400,107.483 164.688,109.289 163.423 C 110.542 162.545,111.483 162.647,112.618 163.782 M121.933 163.500 C 124.222 165.450,122.311 169.123,119.593 167.997 C 117.640 167.188,117.392 164.227,119.200 163.316 C 120.535 162.643,120.961 162.672,121.933 163.500 M131.326 163.260 C 132.469 163.861,132.786 164.376,132.794 165.638 C 132.807 167.871,129.736 168.949,128.324 167.206 C 126.457 164.899,128.740 161.898,131.326 163.260 M141.485 163.685 C 142.878 164.799,142.304 167.215,140.414 168.193 C 138.893 168.979,137.860 168.521,137.258 166.793 C 136.258 163.927,139.138 161.810,141.485 163.685 M147.600 163.600 C 145.337 165.863,148.484 169.735,151.024 167.812 C 151.729 167.278,151.684 167.266,150.540 167.684 C 149.494 168.067,149.105 168.030,148.240 167.463 C 146.317 166.203,147.146 163.538,149.600 163.091 C 150.581 162.912,150.579 162.908,149.500 162.854 C 148.874 162.823,148.056 163.144,147.600 163.600 M157.689 163.423 C 157.200 163.765,156.800 164.215,156.800 164.423 C 156.800 164.630,157.160 164.440,157.600 164.000 C 159.243 162.357,161.793 163.567,161.530 165.865 C 161.434 166.699,161.028 167.186,160.000 167.699 C 159.230 168.084,158.891 168.399,159.246 168.399 C 159.601 168.400,160.366 168.027,160.946 167.571 C 163.738 165.375,160.603 161.382,157.689 163.423 M166.829 163.854 C 165.643 165.362,166.193 168.000,167.692 168.000 C 167.938 168.000,167.748 167.583,167.270 167.074 C 165.765 165.473,166.663 163.200,168.800 163.200 C 169.540 163.200,170.178 163.519,170.577 164.089 C 170.920 164.578,171.200 164.786,171.200 164.551 C 171.200 162.784,168.064 162.284,166.829 163.854 M228.711 163.423 C 230.517 164.688,229.377 168.400,227.182 168.400 C 226.732 168.400,225.922 167.958,225.382 167.418 C 223.050 165.086,226.011 161.532,228.711 163.423 M238.618 163.782 C 240.721 165.884,238.703 169.119,235.990 167.996 C 233.903 167.132,233.708 164.012,235.691 163.216 C 237.117 162.643,237.567 162.730,238.618 163.782 M247.726 163.260 C 249.583 164.237,249.769 166.295,248.117 167.594 C 245.419 169.716,242.160 166.203,244.582 163.782 C 245.668 162.696,246.418 162.571,247.726 163.260 M273.670 163.726 C 272.427 165.049,272.947 168.000,274.423 168.000 C 274.630 168.000,274.440 167.640,274.000 167.200 C 273.002 166.202,272.971 164.731,273.931 163.862 C 276.090 161.909,278.981 164.644,277.180 166.935 C 276.645 167.615,276.551 167.917,276.918 167.776 C 277.847 167.420,278.431 165.733,278.010 164.626 C 277.279 162.704,275.062 162.244,273.670 163.726 M283.689 163.423 C 283.200 163.765,282.800 164.250,282.800 164.499 C 282.800 164.749,283.025 164.645,283.300 164.268 C 283.576 163.892,284.341 163.423,285.000 163.226 C 285.846 162.974,285.961 162.859,285.389 162.834 C 284.943 162.815,284.178 163.080,283.689 163.423 M176.511 163.700 C 175.859 164.542,175.696 165.363,176.015 166.200 C 176.253 166.829,176.314 166.724,176.299 165.714 C 176.288 165.006,176.508 164.151,176.788 163.814 C 177.069 163.476,177.208 163.200,177.098 163.200 C 176.988 163.200,176.724 163.425,176.511 163.700 M257.771 163.829 C 259.566 165.623,257.430 169.353,255.254 168.228 C 253.605 167.375,252.945 164.815,254.080 163.680 C 254.765 162.995,257.029 163.086,257.771 163.829 M263.862 163.931 C 262.809 165.095,263.494 168.000,264.823 168.000 C 265.030 168.000,264.840 167.640,264.400 167.200 C 263.427 166.227,263.372 164.915,264.262 163.931 C 264.626 163.529,264.834 163.200,264.724 163.200 C 264.614 163.200,264.226 163.529,263.862 163.931 M287.020 164.097 C 287.953 165.628,287.501 167.107,285.886 167.810 C 285.101 168.151,284.880 168.375,285.318 168.384 C 287.376 168.429,288.580 165.553,287.176 163.944 L 286.353 163.000 287.020 164.097 M268.446 165.500 C 268.421 165.995,268.040 166.760,267.600 167.200 C 267.160 167.640,266.976 168.000,267.191 168.000 C 267.826 168.000,268.882 166.099,268.680 165.320 C 268.533 164.754,268.483 164.793,268.446 165.500 M156.412 165.320 C 156.387 165.980,157.638 168.000,158.072 168.000 C 158.349 168.000,158.289 167.729,157.918 167.300 C 157.585 166.915,157.112 166.240,156.868 165.800 C 156.624 165.360,156.419 165.144,156.412 165.320 M282.412 165.281 C 282.383 165.956,283.362 167.577,283.932 167.795 C 284.496 168.012,284.496 167.966,283.934 167.317 C 283.592 166.923,283.112 166.240,282.868 165.800 C 282.624 165.360,282.419 165.127,282.412 165.281 M169.400 167.814 C 168.740 168.117,168.481 168.372,168.824 168.382 C 169.166 168.392,169.796 168.136,170.224 167.813 C 171.172 167.096,170.969 167.096,169.400 167.814 M294.137 173.000 C 294.139 174.760,294.209 175.430,294.293 174.489 C 294.378 173.549,294.377 172.109,294.291 171.289 C 294.205 170.470,294.136 171.240,294.137 173.000 M174.845 178.105 C 172.903 182.174,169.481 186.024,165.962 188.100 C 164.563 188.925,163.624 189.600,163.876 189.600 C 166.572 189.600,173.285 182.655,175.554 177.518 C 177.232 173.718,176.747 174.120,174.845 178.105 M293.095 178.467 C 291.093 184.816,285.245 189.307,278.061 190.012 L 274.600 190.351 278.062 190.222 C 283.117 190.034,287.835 187.522,291.049 183.310 C 292.333 181.625,294.144 177.432,293.901 176.703 C 293.830 176.491,293.467 177.284,293.095 178.467 M260.012 177.005 C 259.998 177.468,262.712 181.600,263.030 181.600 C 263.145 181.600,262.718 180.835,262.083 179.900 C 261.447 178.965,260.724 177.840,260.476 177.400 C 260.227 176.960,260.019 176.782,260.012 177.005 M266.438 185.616 C 268.784 187.888,272.391 190.021,273.806 189.973 C 274.243 189.959,273.861 189.715,272.959 189.433 C 271.109 188.854,268.194 186.992,265.774 184.843 C 264.880 184.050,265.179 184.397,266.438 185.616 M151.190 189.541 C 152.910 190.757,160.172 191.020,162.565 189.954 C 163.318 189.618,163.301 189.600,162.400 189.768 C 158.368 190.522,154.486 190.376,151.304 189.351 C 150.723 189.164,150.703 189.197,151.190 189.541 M160.000 211.076 C 154.308 212.029,150.099 215.085,147.892 219.868 C 146.526 222.827,146.491 259.923,147.851 262.800 C 153.532 274.821,172.502 273.599,175.783 261.000 C 176.175 259.496,176.400 256.861,176.400 253.778 C 176.400 247.392,176.408 247.400,170.324 247.400 C 164.652 247.400,164.400 247.631,164.400 252.825 C 164.400 258.635,161.731 261.099,159.706 257.161 C 158.934 255.661,158.995 226.865,159.774 225.001 C 161.425 221.050,164.079 223.140,164.386 228.632 C 164.672 233.753,164.951 234.000,170.462 234.000 C 176.116 234.000,176.400 233.687,176.400 227.460 C 176.400 217.822,172.660 212.735,164.445 211.202 C 162.254 210.793,161.773 210.780,160.000 211.076 M38.560 212.171 C 36.921 212.885,36.800 213.314,36.800 218.404 C 36.800 223.599,37.344 224.400,40.872 224.400 C 42.424 224.400,43.042 224.606,43.818 225.382 L 44.800 226.364 44.800 247.360 L 44.800 268.355 45.720 269.425 C 46.747 270.619,50.553 271.168,54.108 270.635 C 57.674 270.100,57.374 272.079,57.600 247.597 L 57.800 225.929 58.744 225.164 C 59.415 224.621,60.319 224.400,61.862 224.400 C 65.414 224.400,66.000 223.520,66.000 218.192 C 66.000 213.290,65.737 212.587,63.695 212.020 C 61.353 211.369,40.108 211.497,38.560 212.171 M73.220 212.171 C 71.653 213.039,71.658 212.950,71.628 241.081 C 71.594 273.600,70.970 271.007,78.765 270.738 C 84.745 270.532,84.572 270.819,84.708 260.890 C 84.826 252.220,84.940 251.200,85.794 251.200 C 86.528 251.200,86.968 252.061,87.592 254.722 C 87.866 255.888,88.172 256.762,88.271 256.662 C 88.749 256.184,86.964 250.949,86.227 250.666 C 84.776 250.109,84.605 250.967,84.400 259.820 L 84.200 268.471 83.078 269.435 C 81.237 271.018,74.824 270.885,73.169 269.231 L 72.000 268.062 72.000 241.450 C 72.000 214.158,72.048 213.268,73.554 212.525 C 73.909 212.350,77.620 212.108,81.800 211.986 L 89.400 211.766 81.800 211.697 C 76.045 211.645,73.962 211.760,73.220 212.171 M192.058 212.230 C 190.998 212.989,189.986 215.111,190.028 216.487 C 190.045 217.045,190.280 216.672,190.633 215.525 C 191.548 212.550,192.575 211.997,197.154 212.014 C 201.294 212.029,202.550 212.435,203.442 214.044 C 203.733 214.570,203.978 214.785,203.986 214.522 C 204.060 212.025,194.824 210.250,192.058 212.230 M260.108 211.868 C 257.501 212.409,257.600 211.249,257.600 241.232 L 257.600 268.355 258.565 269.478 L 259.531 270.600 270.000 270.600 L 280.469 270.600 281.435 269.478 C 282.320 268.448,282.400 268.014,282.400 264.232 C 282.400 258.439,282.036 258.000,277.231 258.000 C 271.052 258.000,270.400 257.410,270.400 251.818 C 270.400 247.272,270.825 246.766,274.928 246.430 C 279.223 246.079,279.400 245.846,279.400 240.550 C 279.400 235.622,278.895 234.802,275.856 234.798 C 271.365 234.792,270.400 233.807,270.400 229.228 C 270.400 225.029,271.066 224.402,275.529 224.395 C 281.529 224.385,282.000 223.908,282.000 217.842 C 282.000 214.405,281.908 213.938,281.035 212.922 L 280.071 211.800 270.535 211.742 C 265.291 211.710,260.599 211.767,260.108 211.868 M290.695 211.877 C 288.816 212.367,288.800 212.619,288.800 241.200 C 288.800 273.729,288.135 270.784,295.481 270.795 C 301.926 270.804,302.000 270.684,302.000 260.258 C 302.000 250.101,303.223 248.069,305.249 254.860 C 305.779 256.637,305.936 256.920,305.772 255.800 C 305.392 253.213,304.169 250.800,303.237 250.800 C 301.822 250.800,301.600 252.044,301.600 259.955 C 301.600 270.172,301.459 270.400,295.166 270.400 C 291.273 270.400,290.222 270.013,289.649 268.369 C 288.887 266.183,289.029 215.092,289.801 213.598 C 290.614 212.025,291.626 211.887,301.067 212.057 C 305.405 212.136,308.425 212.086,307.777 211.947 C 306.431 211.658,291.764 211.598,290.695 211.877 M310.600 213.127 C 315.432 215.186,317.649 217.617,319.060 222.400 L 319.591 224.200 319.362 222.619 C 318.736 218.295,312.930 212.277,309.525 212.422 C 309.236 212.435,309.720 212.752,310.600 213.127 M95.000 213.862 C 97.590 215.190,99.009 216.531,100.436 219.000 C 101.652 221.104,102.043 221.216,100.977 219.156 C 99.613 216.518,95.017 212.717,93.313 212.819 C 93.141 212.829,93.900 213.298,95.000 213.862 M204.442 218.200 C 204.427 218.640,204.666 219.900,204.972 221.000 C 205.695 223.598,205.732 222.463,205.017 219.600 C 204.715 218.390,204.456 217.760,204.442 218.200 M101.888 223.400 C 102.011 224.720,102.176 225.875,102.256 225.967 C 102.535 226.289,102.316 222.988,101.993 222.000 C 101.789 221.379,101.749 221.909,101.888 223.400 M188.622 223.022 C 188.472 223.825,188.428 224.562,188.526 224.660 C 188.624 224.757,188.827 224.181,188.978 223.378 C 189.128 222.575,189.172 221.838,189.074 221.740 C 188.976 221.643,188.773 222.219,188.622 223.022 M85.023 224.889 C 84.536 225.583,84.400 226.921,84.400 231.000 C 84.400 236.767,84.795 238.000,86.641 238.000 C 87.905 238.000,89.611 236.319,89.566 235.118 C 89.536 234.340,89.477 234.383,89.174 235.400 C 88.540 237.524,86.065 238.416,85.214 236.826 C 84.675 235.820,84.675 226.180,85.214 225.174 C 85.767 224.140,87.125 224.195,88.329 225.300 C 89.286 226.179,89.298 226.180,88.865 225.347 C 88.046 223.770,85.979 223.524,85.023 224.889 M302.223 224.889 C 301.736 225.583,301.600 226.921,301.600 231.000 C 301.600 236.902,301.976 238.000,303.994 238.000 C 305.216 238.000,306.801 236.444,306.799 235.246 C 306.799 234.891,306.484 235.230,306.099 236.000 C 305.575 237.049,305.104 237.434,304.220 237.534 C 302.285 237.754,302.000 236.915,302.000 231.000 C 302.000 225.363,302.230 224.590,304.000 224.283 C 304.996 224.110,304.996 224.109,303.923 224.054 C 303.221 224.019,302.629 224.310,302.223 224.889 M319.570 231.200 C 319.364 238.730,319.118 239.757,316.662 243.356 C 316.078 244.212,315.600 245.195,315.600 245.541 C 315.600 246.168,316.556 244.564,318.664 240.400 C 319.766 238.222,320.482 229.673,319.919 225.400 C 319.833 224.740,319.675 227.350,319.570 231.200 M206.093 226.400 C 206.093 227.170,206.175 227.485,206.276 227.100 C 206.376 226.715,206.376 226.085,206.276 225.700 C 206.175 225.315,206.093 225.630,206.093 226.400 M102.531 231.000 C 102.533 232.540,102.605 233.121,102.692 232.291 C 102.779 231.461,102.777 230.201,102.689 229.491 C 102.600 228.781,102.529 229.460,102.531 231.000 M306.901 231.000 C 306.905 231.880,306.987 232.193,307.083 231.695 C 307.179 231.198,307.175 230.478,307.075 230.095 C 306.975 229.713,306.896 230.120,306.901 231.000 M207.240 233.433 C 207.262 234.075,207.433 235.050,207.620 235.600 C 207.849 236.274,207.884 235.949,207.728 234.600 C 207.469 232.350,207.179 231.659,207.240 233.433 M102.093 236.800 C 102.093 237.570,102.175 237.885,102.276 237.500 C 102.376 237.115,102.376 236.485,102.276 236.100 C 102.175 235.715,102.093 236.030,102.093 236.800 M185.693 238.400 C 185.693 239.170,185.775 239.485,185.876 239.100 C 185.976 238.715,185.976 238.085,185.876 237.700 C 185.775 237.315,185.693 237.630,185.693 238.400 M101.480 239.502 C 101.355 240.124,100.600 241.582,99.802 242.742 C 99.004 243.903,98.438 245.066,98.544 245.326 C 98.683 245.668,98.746 245.658,98.768 245.290 C 98.786 245.010,99.433 243.861,100.206 242.737 C 101.572 240.751,102.298 238.965,101.901 238.567 C 101.793 238.460,101.604 238.881,101.480 239.502 M195.961 243.100 C 194.375 247.261,194.621 250.000,196.582 250.000 C 198.210 250.000,198.915 248.510,198.404 246.150 C 197.863 243.653,197.201 242.000,196.742 242.000 C 196.543 242.000,196.192 242.495,195.961 243.100 M209.240 242.800 C 209.179 243.702,210.523 250.231,210.675 249.774 C 210.748 249.557,210.464 247.763,210.044 245.789 C 209.624 243.815,209.262 242.470,209.240 242.800 M197.519 244.700 C 198.897 248.344,197.552 251.352,195.597 248.997 C 194.858 248.106,195.814 243.600,196.742 243.600 C 196.940 243.600,197.290 244.095,197.519 244.700 M183.867 248.267 C 183.479 250.152,183.236 251.769,183.327 251.860 C 183.418 251.951,183.815 250.489,184.210 248.610 C 184.604 246.731,184.847 245.113,184.749 245.016 C 184.652 244.919,184.255 246.381,183.867 248.267 M315.657 247.200 C 315.659 247.750,315.903 248.830,316.200 249.600 C 316.905 251.430,316.910 250.722,316.209 248.200 C 315.888 247.042,315.655 246.621,315.657 247.200 M98.453 247.800 C 98.463 248.643,99.920 252.888,99.963 252.200 C 99.977 251.980,99.641 250.720,99.216 249.400 C 98.791 248.080,98.447 247.360,98.453 247.800 M100.062 253.200 C 100.062 253.530,100.394 254.700,100.800 255.800 C 101.206 256.900,101.538 257.530,101.538 257.200 C 101.538 256.870,101.206 255.700,100.800 254.600 C 100.394 253.500,100.062 252.870,100.062 253.200 M211.255 253.000 C 211.237 253.220,211.662 255.470,212.200 258.000 C 212.739 260.530,213.076 261.646,212.949 260.481 C 212.725 258.409,211.320 252.208,211.255 253.000 M317.262 253.200 C 317.262 253.530,317.594 254.700,318.000 255.800 C 318.406 256.900,318.738 257.530,318.738 257.200 C 318.738 256.870,318.406 255.700,318.000 254.600 C 317.594 253.500,317.262 252.870,317.262 253.200 M181.800 258.400 C 181.412 260.396,181.175 262.108,181.272 262.205 C 181.369 262.302,181.762 260.745,182.145 258.745 C 182.529 256.746,182.767 255.033,182.674 254.940 C 182.581 254.847,182.188 256.404,181.800 258.400 M88.456 257.600 C 88.456 257.930,88.611 258.560,88.800 259.000 C 89.017 259.504,89.144 259.578,89.144 259.200 C 89.144 258.870,88.989 258.240,88.800 257.800 C 88.583 257.296,88.456 257.222,88.456 257.600 M318.856 258.400 C 318.856 258.730,319.011 259.360,319.200 259.800 C 319.417 260.304,319.544 260.378,319.544 260.000 C 319.544 259.670,319.389 259.040,319.200 258.600 C 318.983 258.096,318.856 258.022,318.856 258.400 M89.280 260.600 C 89.280 261.040,89.424 261.850,89.600 262.400 C 89.854 263.192,89.920 263.233,89.920 262.600 C 89.920 262.160,89.776 261.350,89.600 260.800 C 89.346 260.008,89.280 259.967,89.280 260.600 M195.900 261.082 C 196.395 261.178,197.205 261.178,197.700 261.082 C 198.195 260.987,197.790 260.909,196.800 260.909 C 195.810 260.909,195.405 260.987,195.900 261.082 M319.656 261.200 C 319.656 261.530,319.811 262.160,320.000 262.600 C 320.217 263.104,320.344 263.178,320.344 262.800 C 320.344 262.470,320.189 261.840,320.000 261.400 C 319.783 260.896,319.656 260.822,319.656 261.200 M193.821 261.977 C 193.434 262.404,193.212 262.989,193.327 263.277 C 193.489 263.680,193.544 263.669,193.568 263.231 C 193.586 262.919,193.898 262.334,194.262 261.931 C 194.626 261.529,194.834 261.200,194.724 261.200 C 194.614 261.200,194.208 261.550,193.821 261.977 M199.248 261.800 C 199.604 262.240,199.995 262.870,200.116 263.200 C 200.303 263.709,200.342 263.704,200.368 263.162 C 200.386 262.811,199.995 262.181,199.500 261.762 C 198.608 261.006,198.606 261.007,199.248 261.800 M306.868 262.200 C 306.862 262.640,307.011 263.360,307.200 263.800 C 307.638 264.819,307.638 263.768,307.200 262.400 C 306.943 261.596,306.877 261.557,306.868 262.200 M180.440 265.350 C 179.472 270.220,180.340 270.960,186.765 270.738 C 191.316 270.582,192.217 270.096,192.589 267.599 L 192.797 266.200 192.405 267.433 C 191.688 269.683,190.710 270.185,186.739 270.341 C 181.002 270.566,179.832 269.636,180.796 265.619 C 181.059 264.521,181.205 263.415,181.120 263.161 C 181.036 262.908,180.730 263.892,180.440 265.350 M102.847 263.400 C 102.826 263.620,103.083 264.700,103.419 265.800 C 104.611 269.705,103.723 270.400,97.543 270.400 C 92.662 270.400,91.704 269.752,90.845 265.869 C 90.561 264.587,90.247 263.620,90.146 263.720 C 89.890 263.977,90.808 267.583,91.463 268.888 C 92.287 270.532,93.169 270.800,97.748 270.800 C 104.346 270.800,105.134 270.098,103.682 265.516 C 103.243 264.132,102.867 263.180,102.847 263.400 M320.442 264.000 C 320.421 264.330,320.598 265.296,320.834 266.147 C 321.808 269.654,320.453 270.546,314.466 270.338 C 309.777 270.176,309.116 269.785,308.387 266.745 C 308.125 265.652,307.823 264.843,307.718 264.949 C 307.612 265.054,307.817 266.142,308.173 267.365 C 309.045 270.366,309.928 270.800,315.154 270.800 C 321.413 270.800,322.235 270.093,321.083 265.701 C 320.751 264.435,320.463 263.670,320.442 264.000 M201.011 267.599 C 201.398 270.198,202.207 270.583,207.595 270.733 C 213.113 270.887,214.444 270.254,214.359 267.518 L 214.318 266.200 214.001 267.544 C 213.033 271.638,202.506 271.546,201.195 267.433 L 200.803 266.200 201.011 267.599 " stroke="none" fill="#df231d" fill-rule="evenodd"></path><path id="path3" d="M195.000 107.800 C 194.780 107.875,193.700 108.067,192.600 108.225 L 190.600 108.513 191.900 108.868 C 193.599 109.332,193.542 109.845,191.483 112.656 C 184.057 122.790,179.201 138.210,177.392 157.400 C 177.202 159.409,176.799 160.779,175.964 162.249 C 174.577 164.689,174.530 165.622,175.642 168.529 L 176.484 170.728 175.222 174.464 C 171.883 184.355,166.187 189.000,157.400 189.000 C 148.689 189.000,143.478 184.530,140.992 174.925 C 140.049 171.282,139.296 170.973,139.947 174.496 C 143.490 193.658,166.297 196.016,174.845 178.105 C 176.850 173.904,177.807 173.639,179.197 176.900 C 184.445 189.207,197.575 193.880,208.147 187.204 C 214.885 182.948,220.792 171.305,217.407 168.953 C 214.132 166.677,213.853 164.609,216.572 162.768 C 217.437 162.182,218.276 161.348,218.437 160.913 C 219.038 159.287,217.189 144.128,216.012 141.031 C 215.805 140.487,215.191 138.097,214.649 135.721 C 213.051 128.723,208.266 117.870,204.681 113.111 C 203.972 112.170,203.092 110.932,202.726 110.360 C 201.693 108.747,196.886 107.155,195.000 107.800 M214.000 109.163 C 214.330 109.397,215.278 109.591,216.107 109.594 C 222.411 109.620,241.479 115.279,250.270 119.734 C 264.692 127.042,277.576 138.931,285.367 152.120 C 295.996 170.114,295.425 181.693,283.621 187.527 C 274.716 191.929,266.863 187.600,260.363 174.707 C 258.121 170.261,258.127 170.297,259.200 168.296 C 260.703 165.492,259.539 162.000,257.103 162.000 C 256.431 162.000,256.505 162.177,257.609 163.208 C 259.003 164.510,258.972 164.158,258.150 169.320 C 257.171 175.469,266.690 187.877,273.731 189.630 C 286.996 192.933,297.103 180.021,292.567 165.566 C 285.179 142.023,263.234 121.657,235.918 112.994 C 226.557 110.025,211.499 107.393,214.000 109.163 M167.186 162.312 C 165.458 163.180,164.585 164.687,164.955 166.162 C 166.057 170.556,172.400 170.111,172.400 165.640 C 172.400 162.668,169.792 161.004,167.186 162.312 M264.551 162.184 C 261.851 163.339,261.206 166.068,263.169 168.031 C 266.640 171.502,272.258 166.810,268.900 163.245 C 267.551 161.813,266.194 161.482,264.551 162.184 M274.600 161.888 C 271.407 162.666,270.591 166.687,273.248 168.549 C 276.382 170.744,280.720 167.326,279.006 164.012 C 278.482 162.998,276.118 161.398,275.513 161.646 C 275.451 161.672,275.040 161.781,274.600 161.888 M146.596 163.278 C 145.725 164.313,145.564 164.822,145.748 165.956 C 146.384 169.877,151.526 170.590,153.039 166.968 C 154.674 163.055,149.349 160.006,146.596 163.278 M157.064 162.452 C 156.102 163.011,155.275 165.014,155.507 166.224 C 156.088 169.264,160.173 170.335,162.164 167.969 C 164.935 164.677,160.845 160.254,157.064 162.452 M282.369 163.169 C 281.059 164.480,280.917 165.492,281.804 167.208 C 283.356 170.209,287.723 169.864,288.781 166.656 C 290.029 162.877,285.257 160.282,282.369 163.169 M142.125 163.050 C 142.242 163.462,142.445 164.181,142.578 164.647 C 142.858 165.625,142.390 166.837,140.990 168.759 C 139.553 170.732,139.774 170.915,141.587 169.254 C 143.682 167.336,144.269 165.681,143.430 164.059 C 142.683 162.614,141.814 161.942,142.125 163.050 M151.111 163.423 C 152.881 164.662,151.786 168.400,149.654 168.400 C 149.244 168.400,148.434 168.027,147.854 167.571 C 145.062 165.375,148.197 161.382,151.111 163.423 M161.224 163.624 C 163.027 165.427,161.127 168.799,158.657 168.178 C 157.235 167.822,156.266 166.004,156.779 164.655 C 157.503 162.750,159.814 162.214,161.224 163.624 M170.469 163.462 C 171.475 164.373,171.421 166.579,170.365 167.635 C 169.370 168.630,167.780 168.415,166.700 167.139 C 164.693 164.767,168.166 161.378,170.469 163.462 M180.311 163.423 C 182.171 164.725,180.963 168.400,178.675 168.400 C 178.167 168.400,177.357 168.033,176.875 167.584 C 174.270 165.157,177.391 161.377,180.311 163.423 M190.274 163.670 C 191.471 164.794,191.451 166.186,190.218 167.418 C 188.492 169.144,185.600 167.987,185.600 165.571 C 185.600 163.105,188.443 161.949,190.274 163.670 M199.971 163.854 C 201.060 165.238,201.018 166.219,199.818 167.418 C 197.333 169.903,193.849 166.626,196.029 163.854 C 196.579 163.155,197.243 162.800,198.000 162.800 C 198.757 162.800,199.421 163.155,199.971 163.854 M209.600 163.600 C 211.246 165.246,209.884 168.400,207.528 168.400 C 206.508 168.400,204.800 166.646,204.800 165.600 C 204.800 163.400,208.047 162.047,209.600 163.600 M267.818 163.782 C 269.599 165.563,268.526 168.133,266.000 168.133 C 263.429 168.133,262.283 165.179,264.254 163.629 C 265.638 162.540,266.619 162.582,267.818 163.782 M276.845 163.224 C 279.602 164.699,277.551 169.122,274.626 168.010 C 272.736 167.291,272.272 165.214,273.670 163.726 C 274.616 162.719,275.608 162.562,276.845 163.224 M287.018 163.782 C 288.455 165.219,288.168 167.054,286.355 168.024 C 284.469 169.033,282.005 166.691,282.787 164.634 C 283.532 162.674,285.512 162.275,287.018 163.782 M339.600 211.250 C 333.084 212.307,327.961 217.080,326.806 223.169 C 326.171 226.516,326.286 257.264,326.944 260.059 C 330.495 275.147,353.822 274.624,356.790 259.390 C 357.114 257.727,357.217 251.644,357.128 239.400 L 357.000 221.800 355.960 219.582 C 353.751 214.874,346.037 210.050,342.000 210.854 C 341.890 210.876,340.810 211.054,339.600 211.250 M119.179 212.091 C 114.760 213.636,111.753 216.576,109.919 221.142 C 108.854 223.795,108.283 253.029,109.192 258.392 C 111.741 273.441,131.866 275.956,138.682 262.077 L 139.800 259.800 139.800 241.000 L 139.800 222.200 138.728 219.913 C 135.352 212.711,126.984 209.363,119.179 212.091 M73.746 212.447 C 72.019 213.325,72.000 213.641,72.000 241.450 L 72.000 268.062 73.169 269.231 C 74.824 270.885,81.237 271.018,83.078 269.435 L 84.200 268.471 84.400 259.820 C 84.605 250.967,84.776 250.109,86.227 250.666 C 86.962 250.948,87.373 252.193,89.572 260.800 C 92.066 270.562,91.930 270.400,97.596 270.400 C 101.921 270.400,103.407 270.039,103.769 268.899 C 104.038 268.051,101.962 259.498,99.829 252.666 C 97.992 246.782,97.987 245.382,99.789 242.761 C 101.646 240.062,102.002 238.661,102.274 233.000 C 102.823 221.569,100.784 216.592,94.312 213.569 L 91.400 212.209 83.000 212.111 C 77.553 212.047,74.300 212.165,73.746 212.447 M192.492 212.621 C 190.766 213.829,188.302 223.911,185.603 240.800 C 185.164 243.550,184.358 247.870,183.813 250.400 C 179.398 270.872,179.361 270.627,186.816 270.341 C 191.367 270.166,192.063 269.570,192.796 265.225 C 193.354 261.917,194.365 260.800,196.800 260.800 C 199.235 260.800,200.246 261.917,200.804 265.225 C 201.549 269.640,202.197 270.169,207.065 270.331 C 215.045 270.598,214.870 271.486,210.804 251.332 C 208.991 242.349,206.998 232.120,206.376 228.600 C 203.825 214.180,203.620 213.438,201.964 212.581 C 200.360 211.752,193.692 211.780,192.492 212.621 M221.726 212.382 C 220.007 213.115,220.000 213.238,220.000 241.392 L 220.000 268.436 220.982 269.418 C 223.328 271.765,239.487 270.649,243.948 267.833 C 249.668 264.222,249.800 263.616,249.800 241.000 C 249.800 217.510,249.661 217.002,242.312 213.569 L 239.400 212.209 231.000 212.109 C 226.380 212.055,222.207 212.178,221.726 212.382 M291.095 212.277 C 289.220 212.766,289.200 213.070,289.200 240.920 C 289.200 272.709,288.733 270.400,295.166 270.400 C 301.459 270.400,301.600 270.172,301.600 259.955 C 301.600 252.085,301.825 250.800,303.204 250.800 C 304.342 250.800,305.140 252.671,306.250 257.949 C 308.798 270.061,308.854 270.146,314.435 270.338 C 320.617 270.551,321.687 269.801,320.798 265.877 C 320.321 263.766,317.215 252.859,316.172 249.629 C 315.305 246.945,315.446 245.137,316.662 243.356 C 320.199 238.172,320.886 225.299,317.935 219.482 C 316.112 215.888,312.368 213.228,307.952 212.391 C 305.928 212.007,292.478 211.916,291.095 212.277 M93.371 214.203 C 99.451 216.702,100.944 219.556,101.138 229.050 C 101.306 237.310,100.945 239.391,98.790 242.565 C 96.844 245.432,96.811 246.250,98.427 251.451 C 102.155 263.445,103.193 268.561,102.026 269.186 C 99.121 270.741,92.000 269.206,92.000 267.025 C 92.000 264.905,87.914 250.134,87.152 249.500 C 86.017 248.555,85.345 248.618,84.182 249.782 C 83.200 250.763,83.200 250.765,83.200 259.382 C 83.200 269.986,83.394 269.600,78.076 269.600 C 72.405 269.600,73.000 272.931,73.000 241.200 C 73.000 214.403,73.014 213.925,73.800 213.334 C 75.382 212.146,89.937 212.792,93.371 214.203 M201.985 213.806 C 202.552 214.374,203.032 215.917,203.603 219.006 C 204.050 221.423,205.031 226.730,205.784 230.800 C 207.281 238.898,209.578 250.552,210.792 256.200 C 213.752 269.984,213.838 269.600,207.768 269.600 C 203.002 269.600,202.613 269.301,201.805 265.011 C 200.997 260.719,200.168 259.867,196.800 259.867 C 193.432 259.867,192.603 260.719,191.795 265.011 C 191.004 269.207,190.537 269.600,186.329 269.600 C 180.722 269.600,180.848 270.216,183.614 256.367 C 184.722 250.821,186.081 243.744,186.634 240.641 C 190.167 220.808,191.532 214.746,192.710 213.664 C 194.109 212.378,200.659 212.479,201.985 213.806 M310.113 213.969 C 316.864 216.591,319.163 221.583,318.691 232.600 C 318.462 237.949,317.972 239.696,315.829 242.812 C 314.190 245.195,314.100 246.117,315.163 249.658 C 321.479 270.703,321.472 269.605,315.300 269.594 C 309.564 269.584,310.067 270.339,307.160 257.400 C 305.441 249.750,304.446 248.104,302.170 249.141 C 300.674 249.822,300.334 252.063,300.446 260.501 C 300.570 269.834,300.704 269.600,295.232 269.600 C 289.620 269.600,290.218 272.872,290.092 241.441 L 289.984 214.416 290.837 213.563 C 292.121 212.279,306.543 212.583,310.113 213.969 M84.344 223.565 C 83.017 224.640,82.865 236.925,84.162 238.358 C 85.981 240.368,89.931 238.645,90.545 235.574 C 92.195 227.327,88.510 220.191,84.344 223.565 M301.595 223.805 C 299.896 225.613,299.922 236.722,301.629 238.429 C 304.822 241.622,308.000 237.916,308.000 231.000 C 308.000 223.893,304.844 220.347,301.595 223.805 M125.984 223.592 C 127.446 224.374,127.600 226.067,127.599 241.360 C 127.597 258.066,127.481 258.800,124.834 258.800 C 121.796 258.800,121.600 257.723,121.600 241.000 C 121.600 223.438,122.087 221.506,125.984 223.592 M344.012 224.500 C 345.215 226.455,345.058 256.611,343.838 257.958 C 342.423 259.521,339.985 258.879,339.242 256.749 C 338.644 255.034,338.632 227.295,339.228 225.727 C 340.313 222.873,342.643 222.276,344.012 224.500 M87.782 224.248 C 89.884 225.055,90.542 235.095,88.618 237.018 C 85.791 239.846,84.400 237.861,84.400 231.000 C 84.400 224.532,85.065 223.206,87.782 224.248 M236.192 224.955 C 237.584 226.348,237.653 227.249,237.521 242.333 L 237.400 256.066 236.073 257.252 C 234.658 258.516,233.477 258.526,232.500 257.283 C 231.675 256.233,231.789 226.079,232.623 224.889 C 233.440 223.722,234.987 223.751,236.192 224.955 M305.557 224.700 C 308.415 227.067,307.253 237.606,304.099 237.922 C 301.992 238.134,301.600 237.047,301.600 231.000 C 301.600 224.308,302.792 222.411,305.557 224.700 M195.816 238.900 C 192.989 245.670,193.329 251.200,196.573 251.200 C 199.746 251.200,200.291 249.005,198.797 242.248 C 197.728 237.412,196.850 236.426,195.816 238.900 M197.542 243.100 C 199.166 247.168,198.773 250.000,196.582 250.000 C 195.110 250.000,194.545 248.507,195.104 246.093 C 195.699 243.521,196.307 242.000,196.742 242.000 C 196.940 242.000,197.301 242.495,197.542 243.100 " stroke="none" fill="#00823d" fill-rule="evenodd"></path></g></svg>