<?xml version="1.0" standalone="no"?>
<!DOCTYPE svg PUBLIC "-//W3C//DTD SVG 20010904//EN"
 "http://www.w3.org/TR/2001/REC-SVG-20010904/DTD/svg10.dtd">
<svg version="1.0" xmlns="http://www.w3.org/2000/svg"
 width="192.000000pt" height="192.000000pt" viewBox="0 0 192.000000 192.000000"
 preserveAspectRatio="xMidYMid meet">
<metadata>
Created by potrace 1.11, written by Peter Selinger 2001-2013
</metadata>
<g transform="translate(0.000000,192.000000) scale(0.100000,-0.100000)"
fill="#000000" stroke="none">
<path d="M925 1459 c-4 -5 -4 -21 -1 -35 6 -22 4 -24 -32 -24 -52 0 -142 -25
-204 -56 -95 -48 -198 -182 -198 -256 0 -53 62 -92 114 -72 23 9 59 72 53 94
-6 22 7 35 23 25 8 -5 7 -11 -1 -21 -28 -34 20 -104 72 -104 43 0 66 15 88 58
16 29 20 33 21 15 0 -29 55 -73 90 -73 31 0 90 43 90 66 0 8 5 14 10 14 6 0
10 -7 10 -15 0 -30 47 -65 85 -65 41 0 85 38 85 74 0 17 4 14 21 -14 27 -46
47 -60 81 -60 38 0 78 40 78 77 0 77 -100 207 -196 256 -67 34 -149 57 -201
57 -43 0 -52 7 -33 26 6 6 8 18 4 27 -7 19 -49 23 -59 6z m-383 -334 c0 -5 -5
-11 -11 -13 -6 -2 -11 4 -11 13 0 9 5 15 11 13 6 -2 11 -8 11 -13z m48 0 c0
-8 -4 -15 -9 -15 -13 0 -22 16 -14 24 11 11 23 6 23 -9z m50 0 c0 -8 -7 -15
-15 -15 -8 0 -15 7 -15 15 0 8 7 15 15 15 8 0 15 -7 15 -15z m90 0 c0 -8 -4
-15 -9 -15 -13 0 -22 16 -14 24 11 11 23 6 23 -9z m48 3 c-6 -18 -28 -21 -28
-4 0 9 7 16 16 16 9 0 14 -5 12 -12z m42 -3 c0 -8 -4 -15 -9 -15 -13 0 -22 16
-14 24 11 11 23 6 23 -9z m50 0 c0 -8 -4 -15 -9 -15 -13 0 -22 16 -14 24 11
11 23 6 23 -9z m50 0 c0 -8 -7 -15 -15 -15 -8 0 -15 7 -15 15 0 8 7 15 15 15
8 0 15 -7 15 -15z m45 6 c7 -12 -12 -24 -25 -16 -11 7 -4 25 10 25 5 0 11 -4
15 -9z m45 -6 c0 -8 -7 -15 -15 -15 -8 0 -15 7 -15 15 0 8 7 15 15 15 8 0 15
-7 15 -15z m48 3 c-6 -18 -28 -21 -28 -4 0 9 7 16 16 16 9 0 14 -5 12 -12z
m47 3 c7 -12 -12 -24 -25 -16 -11 7 -4 25 10 25 5 0 11 -4 15 -9z m45 -7 c0
-17 -22 -14 -28 4 -2 7 3 12 12 12 9 0 16 -7 16 -16z m48 4 c-6 -18 -28 -21
-28 -4 0 9 7 16 16 16 9 0 14 -5 12 -12z m42 -3 c0 -8 -4 -15 -9 -15 -13 0
-22 16 -14 24 11 11 23 6 23 -9z m50 0 c0 -8 -4 -15 -9 -15 -13 0 -22 16 -14
24 11 11 23 6 23 -9z m42 0 c0 -5 -5 -11 -11 -13 -6 -2 -11 4 -11 13 0 9 5 15
11 13 6 -2 11 -8 11 -13z m48 0 c0 -8 -4 -15 -9 -15 -13 0 -22 16 -14 24 11
11 23 6 23 -9z"/>
<path d="M570 897 c-41 -20 -51 -53 -48 -150 3 -79 6 -91 27 -108 34 -27 75
-24 100 7 18 23 21 41 21 119 0 74 -4 97 -17 113 -24 27 -53 34 -83 19z m40
-138 c0 -68 -3 -90 -12 -87 -9 3 -14 33 -16 91 -2 73 0 87 13 87 12 0 15 -16
15 -91z"/>
<path d="M742 898 c-31 -15 -45 -71 -41 -161 5 -89 23 -117 75 -117 39 0 74
38 74 81 0 25 -4 29 -29 29 -24 0 -30 -5 -33 -25 -2 -14 -7 -25 -13 -25 -15 0
-13 162 3 168 7 2 12 -6 12 -22 0 -22 4 -26 31 -26 31 0 31 1 26 37 -4 20 -12
42 -19 49 -19 19 -60 25 -86 12z"/>
<path d="M1620 903 c-44 -16 -50 -33 -50 -140 0 -116 13 -143 70 -143 57 0 70
27 70 143 0 86 -3 106 -17 119 -22 19 -53 28 -73 21z m38 -138 c3 -79 -9 -115
-28 -85 -11 17 -13 153 -3 164 18 18 28 -7 31 -79z"/>
<path d="M180 870 c0 -23 4 -30 20 -30 19 0 20 -7 20 -111 l0 -110 28 3 27 3
3 106 c2 97 5 107 22 112 14 3 20 14 20 31 0 26 -1 26 -70 26 l-70 0 0 -30z"/>
<path d="M347 763 l2 -138 25 -3 c25 -3 26 -1 26 47 0 65 15 65 30 1 11 -46
14 -50 41 -50 34 0 34 0 13 69 -11 38 -12 57 -5 64 6 6 11 35 11 63 0 66 -21
84 -95 84 l-50 0 2 -137z m81 43 c-2 -15 -7 -28 -13 -29 -12 -2 -19 38 -10 60
9 25 27 1 23 -31z"/>
<path d="M915 888 c-2 -7 -14 -64 -25 -126 -12 -62 -23 -119 -27 -127 -4 -11
3 -15 25 -15 23 0 31 5 36 25 4 14 13 25 20 25 8 0 17 -11 20 -25 5 -20 13
-25 37 -25 27 0 30 3 26 23 -3 12 -16 75 -28 140 l-22 117 -29 0 c-16 0 -31
-6 -33 -12z m35 -138 c0 -16 -4 -30 -8 -30 -5 0 -7 14 -4 30 2 17 6 30 8 30 2
0 4 -13 4 -30z"/>
<path d="M1060 759 l0 -142 52 5 c76 8 88 27 88 144 0 116 -12 134 -90 134
l-50 0 0 -141z m78 3 c2 -68 0 -82 -13 -82 -12 0 -15 15 -15 86 0 64 3 85 13
82 8 -3 13 -32 15 -86z"/>
<path d="M1240 760 l0 -140 55 0 c54 0 55 0 55 30 0 25 -4 30 -25 30 -21 0
-25 5 -25 30 0 23 4 30 20 30 15 0 20 7 20 25 0 18 -5 25 -20 25 -15 0 -20 7
-20 25 0 20 5 25 25 25 21 0 25 5 25 30 0 30 -1 30 -55 30 l-55 0 0 -140z"/>
<path d="M1390 760 l0 -140 30 0 c30 0 30 1 30 53 0 58 14 50 25 -15 6 -34 10
-38 36 -38 34 0 35 7 14 76 -9 31 -11 52 -5 58 6 6 10 33 10 61 0 67 -18 85
-88 85 l-52 0 0 -140z m80 56 c0 -19 -4 -38 -10 -41 -6 -4 -10 10 -10 34 0 23
5 41 10 41 6 0 10 -15 10 -34z"/>
</g>
</svg>
